<svg width="24" height="45" viewBox="0 0 24 45" xmlns="http://www.w3.org/2000/svg">
    <g fill-rule="nonzero" fill="none">
        <path d="M11.587 44.454a3.717 3.717 0 0 1-3.732.075l-3.206-1.774a6.773 6.773 0 0 1-2.627-9.25l3.115-5.534 4.85 14.48c.29.883.876 1.57 1.6 2.003zM22.162 15.638l-4.129 12.334-6.446-11.452L20.613.482c.448-.798 1.655-.546 1.75.362l.697 6.54a19.475 19.475 0 0 1-.898 8.254z" fill="#B8BAC4"/>
        <path d="m18.032 27.971-4.845 14.48a3.705 3.705 0 0 1-1.6 2.003 3.662 3.662 0 0 1-1.602-2.002l-4.85-14.48 6.451-11.453 6.446 11.452z" fill="#000"/>
        <path d="m11.587 16.519-6.45 11.452-4.13-12.334a19.475 19.475 0 0 1-.896-8.255L.807.842C.905-.068 2.108-.32 2.557.48l9.03 16.039zM18.52 42.755 15.32 44.53a3.717 3.717 0 0 1-3.733-.075 3.702 3.702 0 0 0 1.601-2.002l4.845-14.48 3.116 5.533a6.773 6.773 0 0 1-2.628 9.25z" fill="#B8BAC4"/>
    </g>
</svg>
